<?xml version="1.0" standalone="no"?><!DOCTYPE svg PUBLIC "-//W3C//DTD SVG 1.1//EN" "http://www.w3.org/Graphics/SVG/1.1/DTD/svg11.dtd"><svg t="1713248721447" class="icon" viewBox="0 0 1116 1024" version="1.1" xmlns="http://www.w3.org/2000/svg" p-id="6254" width="69.75" height="64" xmlns:xlink="http://www.w3.org/1999/xlink"><path d="M555.123126 1023.995565a35.477653 35.477653 0 0 1-25.011745-9.933742L99.590068 583.185732A339.875911 339.875911 0 0 1 339.951164 2.948725a337.037699 337.037699 0 0 1 215.171962 76.809118A339.875911 339.875911 0 0 1 1011.18835 583.185732L580.31226 1014.061823a35.477653 35.477653 0 0 1-25.189134 9.933742zM339.951164 73.90403A268.920606 268.920606 0 0 0 149.790946 532.984854l405.33218 405.33218 405.332181-405.33218A268.920606 268.920606 0 0 0 580.31226 152.664419a35.477653 35.477653 0 0 1-25.189134 9.933743 35.477653 35.477653 0 0 1-25.011745-10.465908A267.678888 267.678888 0 0 0 339.951164 73.90403z" fill="#3D3D3D" p-id="6255"></path><path d="M555.123126 278.432697a165.858026 165.858026 0 0 0-234.507283 234.507283L555.123126 747.979429l234.507284-235.039449a165.858026 165.858026 0 0 0-234.507284-234.507283z" fill="#F683A2" p-id="6256"></path></svg>