<?xml version="1.0" standalone="no"?><!DOCTYPE svg PUBLIC "-//W3C//DTD SVG 1.1//EN" "http://www.w3.org/Graphics/SVG/1.1/DTD/svg11.dtd"><svg t="1714027967882" class="icon" viewBox="0 0 1024 1024" version="1.1" xmlns="http://www.w3.org/2000/svg" p-id="3543" xmlns:xlink="http://www.w3.org/1999/xlink" width="64" height="64"><path d="M435.23822 774.738983c-8.462742 0-17.013489-2.65241-24.289196-8.149611-17.799388-13.418614-21.358447-38.755676-7.922437-56.55404L555.850206 507.419681l-152.247496-192.171788c-13.837146-17.476023-10.889001-42.88267 6.578836-56.729026 17.48421-13.846356 42.890856-10.906397 56.729026 6.578836L638.526183 481.742882c11.429307 14.413268 11.656481 34.715663 0.592494 49.382711l-171.616636 227.542366C459.564255 769.189593 447.470823 774.738983 435.23822 774.738983L435.23822 774.738983zM435.23822 774.738983" fill="#272636" p-id="3544"></path><path d="M511.999488 958.708971c-60.288085 0-118.79664-11.813047-173.901679-35.124985-53.187363-22.49227-100.963483-54.704926-141.970432-95.710852-41.005926-41.006949-73.218582-88.784092-95.709829-141.987828C77.103564 630.79664 65.290517 572.288085 65.290517 512s11.813047-118.788453 35.126009-173.894516c22.491247-53.194526 54.703903-100.962459 95.709829-141.978618 41.006949-41.015136 88.784092-73.218582 141.970432-95.719038 55.106062-23.303752 113.613594-35.116799 173.901679-35.116799S630.778732 77.104075 685.884794 100.407827c53.203736 22.500457 100.963483 54.703903 141.986805 95.719038 41.024345 41.016159 73.219605 88.784092 95.710852 141.978618 23.312962 55.106062 35.126009 113.606431 35.126009 173.894516s-11.813047 118.79664-35.126009 173.885306c-22.491247 53.203736-54.686507 100.980879-95.710852 141.987828-41.023322 41.005926-88.783069 73.218582-141.986805 95.710852C630.778732 946.895925 572.287573 958.708971 511.999488 958.708971L511.999488 958.708971zM511.999488 146.056494c-201.786773 0-365.93532 164.156734-365.93532 365.943506s164.147524 365.952716 365.93532 365.952716 365.93532-164.165943 365.93532-365.952716S713.786261 146.056494 511.999488 146.056494L511.999488 146.056494zM511.999488 146.056494" fill="#272636" p-id="3545"></path></svg>