<?xml version="1.0" standalone="no"?><!DOCTYPE svg PUBLIC "-//W3C//DTD SVG 1.1//EN" "http://www.w3.org/Graphics/SVG/1.1/DTD/svg11.dtd"><svg t="1714033347459" class="icon" viewBox="0 0 1024 1024" version="1.1" xmlns="http://www.w3.org/2000/svg" p-id="6388" xmlns:xlink="http://www.w3.org/1999/xlink" width="64" height="64"><path d="M861.456 90.96l-246.4 36.8a128 128 0 0 0-71.632 36.096L64.144 643.072a64 64 0 0 0 0 90.512l226.272 226.272a64 64 0 0 0 90.512 0l479.488-479.488a128 128 0 0 0 36-71.04l19.2-124.576 18.576-120.752a64 64 0 0 0-72.736-73.04zM844.8 247.104a48.352 48.352 0 1 1 13.36-26.624 48 48 0 0 1-13.36 26.624z" fill="#ED1C24" p-id="6389"></path><path d="M900.096 97.36L883.584 204.8l-19.2 124.576a128 128 0 0 1-36 71.04L348.928 879.856a64 64 0 0 1-90.512 0L48.416 669.872a63.712 63.712 0 0 0 15.728 63.712l226.272 226.272a64 64 0 0 0 90.512 0l479.488-479.488a128 128 0 0 0 36-71.04l19.2-124.576 18.576-120.752a64 64 0 0 0-34.096-66.64z" fill="#CF1820" p-id="6390"></path><path d="M369.6 699.648a48 48 0 0 0-67.888 0l-22.624 22.624a16 16 0 0 1-22.64 0l-22.624-22.624a16 16 0 0 1 0-22.64l45.248-45.248a16 16 0 0 0-22.624-22.624L211.2 654.4a48 48 0 0 0 0 67.888l22.624 22.624a48 48 0 0 0 67.888 0l22.624-22.624a16 16 0 0 1 22.64 0l22.624 22.608a16 16 0 0 1 0 22.64L324.352 812.8a16 16 0 1 0 22.624 22.624l45.264-45.248a48 48 0 0 0 0-67.888zM552.24 602.048l-169.712-101.824a16 16 0 0 0-19.536 2.4l-22.64 22.64a16 16 0 0 0-2.4 19.536l101.824 169.712a16 16 0 1 0 27.44-16.48l-27.52-45.856 50.208-50.208 45.856 27.52a16 16 0 0 0 16.48-27.44z m-129.52 21.856l-50.912-84.8 4.96-4.96 84.8 50.912zM650.512 486.624l-56.576 56.576-124.448-124.448a16 16 0 1 0-22.624 22.624l135.76 135.76a16 16 0 0 0 22.624 0l67.888-67.888a16 16 0 0 0-22.624-22.624zM757.024 380.112l-45.264 45.264-45.248-45.264 22.624-22.624a16 16 0 0 0-22.624-22.624l-22.624 22.624-45.264-45.248 45.264-45.264a16 16 0 1 0-22.624-22.624l-56.576 56.576a16 16 0 0 0 0 22.624l135.76 135.76a16 16 0 0 0 22.624 0l56.576-56.576a16 16 0 1 0-22.624-22.624z" fill="#F1F2F2" p-id="6391"></path><path d="M919.312 260.48l14.848-96.48a64 64 0 0 0-34.064-66.64L883.584 204.8l-2.016 13.088a190.544 190.544 0 0 1 37.744 42.592z" fill="#CF1820" p-id="6392"></path><path d="M929.44 276.8c-3.2-5.744-6.672-11.072-10.128-16.272a190.544 190.544 0 0 0-37.712-42.688A103.744 103.744 0 0 0 816 192a16 16 0 0 0 0 32 83.296 83.296 0 0 1 59.664 32.16 204.016 204.016 0 0 1 25.984 36.432c3.44 6.016 6.608 12.592 9.776 19.2C942.4 375.776 960 464.56 960 560c0 182.128-65.952 336-144 336-59.024 0-114.64-91.552-135.232-222.64-0.208-1.328-0.752-5.952-1.504-11.84L651.2 689.6C676.432 834.752 740.448 928 816 928c98.688 0 176-161.6 176-368 0-110.64-22.816-213.904-62.56-283.2z" fill="#FFCD00" p-id="6393"></path></svg>