<?xml version="1.0" standalone="no"?><!DOCTYPE svg PUBLIC "-//W3C//DTD SVG 1.1//EN" "http://www.w3.org/Graphics/SVG/1.1/DTD/svg11.dtd"><svg t="1714033280926" class="icon" viewBox="0 0 1024 1024" version="1.1" xmlns="http://www.w3.org/2000/svg" p-id="5332" xmlns:xlink="http://www.w3.org/1999/xlink" width="64" height="64"><path d="M334.674747 826.970505c-10.433939 12.450909-21.294545 25.522424-32.323232 38.503434-10.79596 12.748283-26.052525 17.092525-40.610909 11.739798a35.128889 35.128889 0 0 1-15.515151-54.807272c8.96-11.313131 18.605253-22.057374 27.940202-33.073132 1.654949-1.952323 3.271111-3.956364 4.964848-5.999192C203.791515 708.525253 166.787879 618.42101 172.580202 512.568889c5.094141-92.651313 43.261414-170.78303 111.036768-234.252929 129.060202-120.87596 337.260606-121.250909 466.501818-0.504243 72.856566 68.072727 111.191919 152.113131 112.08404 252.043637 0.91798 99.710707-36.641616 183.77697-107.545858 254.034747 9.347879 12.606061 18.902626 25.031111 27.953131 37.792323 15.282424 21.553131 4.344242 49.997576-21.462626 55.427879-14.028283 2.947879-26.091313-1.629091-34.986667-12.929293-9.451313-11.998384-18.359596-24.410505-27.487677-36.615757-121.393131 67.865859-242.372525 67.697778-363.998384-0.594748zM836.525253 532.751515C836.602828 356.848485 693.747071 213.734141 517.559596 213.333333S197.818182 356.38303 197.818182 532.622222C197.727677 708.525253 340.673939 851.717172 516.783838 852.040404S836.525253 709.003636 836.525253 532.751515zM855.919192 353.060202c-13.252525-0.258586-22.807273-6.063838-29.595152-17.00202a280.488081 280.488081 0 0 0-88.436363-89.97495c-9.942626-6.348283-20.686869-11.455354-30.875152-17.428687-12.282828-7.188687-18.269091-18.10101-16.937373-32.323232 1.357576-14.545455 9.606465-24.087273 23.363232-28.651313a31.44404 31.44404 0 0 1 24.436363 2.01697q91.875556 45.252525 145.726061 132.331313c6.891313 11.145051 7.149899 22.923636 0.685253 34.327273-6.154343 10.989899-16.006465 16.381414-28.366869 16.704646zM182.134949 354.262626a31.663838 31.663838 0 0 1-27.151515-16.989091c-6.296566-11.455354-5.960404-23.091717 0.892122-34.262626a348.832323 348.832323 0 0 1 74.485656-86.057374A343.195152 343.195152 0 0 1 301.252525 171.209697c22.083232-10.666667 46.054141 2.999596 48.355556 27.319596 1.292929 13.588687-6.231919 25.974949-20.260202 32.969697-31.353535 15.618586-59.474747 35.749495-82.682828 61.970101-12.218182 13.795556-22.820202 29.07798-33.616162 44.101818C205.653333 347.914343 196.525253 354.262626 182.134949 354.262626z" fill="#d81e06" p-id="5333"></path><path d="M836.525253 532.751515C836.525253 709.003636 692.880808 852.389495 516.783838 852.040404S197.727677 708.525253 197.818182 532.622222C197.818182 356.38303 341.553131 212.906667 517.559596 213.333333S836.602828 356.848485 836.525253 532.751515zM365.149091 698.996364c14.429091-1.409293 28.832323-2.185051 43.015757-4.344243 15.890101-2.417778 25.160404-12.606061 27.500607-28.353939a178.217374 178.217374 0 0 0 1.292929-25.082828c0.142222-26.479192 0-53.010101 0-79.773738 8.365253-2.133333 16.368485-4.551111 24.565656-6.128485 4.977778-0.956768 6.619798-2.934949 6.464647-8.054949-0.426667-11.545859-0.129293-23.117576-0.129293-36.085657l5.805252 4.421818 10.05899-7.757575v8.546262c0 42.873535-0.103434 85.76 0 128.633536 0.103434 28.444444 14.920404 45.666263 43.209697 46.545454 36.56404 1.189495 73.244444 1.111919 109.795556-0.310303 21.191111-0.814545 39.460202-10.808889 46.545454-32.103434 6.141414-18.359596 8.895354-37.85697 13.187879-57.05697l-45.511111-14.131717c-1.900606 13.549899-3.620202 26.543838-5.572525 39.486061-2.340202 15.515152-10.071919 22.626263-26.039596 22.858989q-33.926465 0.478384-67.865859 0c-15.515152-0.219798-22.716768-7.964444-22.729697-23.466666v-109.239596h81.37697c0 8.895354 0.090505 17.286465 0 25.677576a59.746263 59.746263 0 0 1-1.086061 8.972929c-2.159192 12.567273-9.955556 19.264646-22.716767 19.212929-7.31798 0-14.62303-0.633535-21.979798-0.775757-7.020606-0.142222-14.028283 0-21.385051 0l8.843637 42.666666c19.768889-0.814545 39.731717 0 59.177373-2.831515 23.621818-3.400404 38.529293-21.242828 41.645253-47.838384 2.146263-18.333737 2.068687-36.93899 2.999596-55.414949 0.116364-2.391919 0.297374-4.783838 0.504242-8.067879l17.157172 12.166465 23.272727-43.610505c-0.840404-0.659394-1.629091-1.292929-2.495353-1.926465-35.620202-23.634747-64.72404-53.928081-90.33697-87.919192-5.055354-6.710303-10.084848-12.812929-4.046869-21.359192 0.077576-0.103434-0.103434-0.400808-0.374949-1.292929-13.924848 0-28.082424 0.206869-42.227071-0.116364-4.745051-0.103434-7.214545 1.499798-9.528889 5.611313A409.031111 409.031111 0 0 1 471.919192 458.408081c-8.559192 8.093737-17.519192 15.786667-26.556768 23.880404l22.225455 25.858586-29.983031 6.774949v-56.009697h30.939798v-45.381818h-31.896565v-58.776566H391.757576v59.138586h-36.848485v45.524041h36.719192v65.590303l-42.666667 8.830707 4.93899 49.764848 37.85697-10.110707c0 22.626263 0.232727 44.153535-0.116364 65.667879-0.142222 8.817778-4.822626 12.515556-13.756768 12.515556H353.228283z" fill="#FFFFFF" p-id="5334"></path><path d="M365.149091 698.996364L353.228283 651.636364h24.694949c8.934141 0 13.601616-3.710707 13.756768-12.515556 0.349091-21.514343 0.116364-43.041616 0.116364-65.667879l-37.908687 10.097778-4.93899-49.764848 42.666667-8.830707v-65.538586h-36.693334v-45.524041H391.757576v-59.138586h44.877576v58.776566h31.844848v45.381818h-30.926869v55.996768l29.983031-6.787879-22.225455-25.858586c9.050505-8.106667 17.997576-15.786667 26.556768-23.880404A409.031111 409.031111 0 0 0 547.594343 360.727273c2.314343-4.111515 4.783838-5.714747 9.528889-5.611313 14.144646 0.323232 28.302222 0.116364 42.227071 0.116363 0.271515 0.91798 0.452525 1.215354 0.37495 1.29293-6.03798 8.546263-1.008485 14.648889 4.046868 21.359191 25.612929 33.952323 54.703838 64.258586 90.33697 87.919192 0.866263 0.568889 1.654949 1.292929 2.495353 1.926465l-23.272727 43.610505-17.157172-12.166465c-0.206869 3.28404-0.387879 5.67596-0.504242 8.067879-0.930909 18.47596-0.853333 37.081212-2.999596 55.41495-3.11596 26.595556-18.023434 44.43798-41.645252 47.838384-19.393939 2.805657-39.395556 2.01697-59.177374 2.831515l-8.843637-42.666667c7.356768 0 14.377374-0.116364 21.385051 0 7.31798 0.142222 14.63596 0.749899 21.979798 0.775758 12.774141 0 20.570505-6.658586 22.716768-19.21293a59.746263 59.746263 0 0 0 1.08606-8.972929c0.142222-8.391111 0-16.808081 0-25.677576H528.808081v109.239596c0 15.515152 7.175758 23.272727 22.729697 23.466667q33.926465 0.478384 67.865858 0c15.967677-0.219798 23.699394-7.279192 26.039596-22.85899 1.952323-12.929293 3.671919-25.936162 5.572526-39.486061l45.511111 14.131718c-4.292525 19.2-7.046465 38.697374-13.187879 57.056969-7.111111 21.294545-25.393131 31.288889-46.545455 32.103435-36.551111 1.422222-73.231515 1.486869-109.795555 0.310303-28.289293-0.91798-43.119192-18.10101-43.209697-46.545455-0.155152-42.873535 0-85.76 0-128.633535v-8.546263l-10.05899 7.757576-5.805253-4.421818c0 12.929293-0.284444 24.565657 0.129293 36.085656 0.18101 5.171717-1.448081 7.098182-6.464646 8.05495-8.171313 1.564444-16.161616 3.995152-24.565657 6.128485 0 26.815354 0.090505 53.294545 0 79.773737a178.217374 178.217374 0 0 1-1.292929 25.082828c-2.340202 15.747879-11.636364 25.936162-27.500606 28.35394-14.26101 2.185051-28.651313 2.960808-43.080404 4.370101z m205.963636-288.969697l-54.30303 67.232323h111.941818z" fill="#8a8a8a" p-id="5335" data-spm-anchor-id="a313x.search_index.0.i4.220e3a81HM35o6" class="selected"></path><path d="M571.112727 410.026667l57.574142 67.232323h-111.928889z" fill="#FFFFFF" p-id="5336"></path></svg>